<svg width="21" height="21" viewBox="0 0 21 21" fill="none" xmlns="http://www.w3.org/2000/svg">
<g clip-path="url(#clip0_336_349)">
<path d="M15.75 0.620117C13.5627 0.620117 11.9077 1.90376 10.5 3.24512C9.15864 1.82172 7.43729 0.620117 5.25 0.620117C2.16955 0.620117 0 3.26873 0 6.15691C0 7.70631 0.634598 8.82261 1.32955 9.87062L9.48871 19.6527C10.4048 20.622 10.5774 20.622 11.4936 19.6527L19.6711 9.87062C20.4881 8.82261 21 7.70631 21 6.15691C21 3.26876 18.8304 0.620117 15.75 0.620117ZM18.375 9.59896L10.5 18.9951L2.625 9.56021C1.68329 8.25101 1.3125 7.36771 1.3125 6.15691C1.3125 3.90072 2.9236 1.86962 5.25 1.85057C7.16364 1.83482 9.33254 3.78913 10.5 5.26242C11.6366 3.84032 13.8364 1.85057 15.75 1.85057C18.0147 1.85057 19.6875 3.90072 19.6875 6.15691C19.6875 7.36771 19.3942 8.31662 18.375 9.59896Z" fill="white"/>
</g>
<defs>
<clipPath id="clip0_336_349">
<rect width="21" height="21" fill="white"/>
</clipPath>
</defs>
</svg>
